/* XPM */
static char *_b3a7869d93c41f1effb9cab1fd5ccb3[] = {
/* columns rows colors chars-per-pixel */
"64 64 256 2 ",
"   c #020101",
".  c #0B0100",
"X  c #020902",
"o  c #0B0A00",
"O  c #03020B",
"+  c #0A020A",
"@  c #0A0A0B",
"#  c #120200",
"$  c #1A0200",
"%  c #120807",
"&  c #060514",
"*  c #141413",
"=  c #1C1C1C",
"-  c #161316",
";  c #181108",
":  c #240A06",
">  c #302711",
",  c #1A1923",
"<  c #0D0F24",
"1  c #211D32",
"2  c #242424",
"3  c #2C2C2C",
"4  c #2A2627",
"5  c #36322C",
"6  c #2D2E31",
"7  c #333333",
"8  c #3B3B3B",
"9  c #373837",
"0  c #312D31",
"q  c #1C2127",
"w  c #49390D",
"e  c #493E37",
"r  c #723C00",
"t  c #3B403C",
"y  c #564B0C",
"u  c #785A07",
"i  c #785D16",
"p  c #724D08",
"a  c #7A6408",
"s  c #7A6718",
"d  c #716716",
"f  c #5A5729",
"g  c #46453B",
"h  c #5A5737",
"j  c #574B33",
"k  c #7A5C2D",
"l  c #6B5734",
"z  c #7C672A",
"x  c #796737",
"c  c #716A30",
"v  c #5F622D",
"b  c #393A42",
"n  c #453D47",
"m  c #3C4346",
"M  c #444444",
"N  c #4C4C4C",
"B  c #474948",
"V  c #4E524E",
"C  c #535449",
"Z  c #4A4C52",
"A  c #4D5455",
"S  c #535354",
"D  c #5A5A5A",
"F  c #565757",
"G  c #534D50",
"H  c #615A5E",
"J  c #655E42",
"K  c #787457",
"L  c #706C4E",
"P  c #595C62",
"I  c #636363",
"U  c #6C6C6C",
"Y  c #696766",
"T  c #776C69",
"R  c #77746B",
"E  c #737373",
"W  c #7B7C7B",
"Q  c #757678",
"!  c #6C7276",
"~  c #615F60",
"^  c #875A07",
"/  c #855C17",
"(  c #915D01",
")  c #896709",
"_  c #936807",
"`  c #8A7605",
"'  c #977509",
"]  c #896618",
"[  c #966916",
"{  c #8B7817",
"}  c #997417",
"|  c #A5750C",
" . c #A26D18",
".. c #A57919",
"X. c #A8710D",
"o. c #865C27",
"O. c #8F5E29",
"+. c #8A6726",
"@. c #956927",
"#. c #88772A",
"$. c #977627",
"%. c #846937",
"&. c #87763A",
"*. c #967938",
"=. c #9E6C32",
"-. c #A67926",
";. c #B47B26",
":. c #A77A35",
">. c #AC742C",
",. c #8B7746",
"<. c #967944",
"1. c #8A7955",
"2. c #977B58",
"3. c #876D49",
"4. c #887769",
"5. c #947A68",
"6. c #8B7371",
"7. c #AE7B46",
"8. c #7F8233",
"9. c #7F8964",
"0. c #9A8E0E",
"q. c #A38A0D",
"w. c #A49502",
"e. c #AA881A",
"r. c #B8831A",
"t. c #A9921A",
"y. c #B3921A",
"u. c #998627",
"i. c #9A8336",
"p. c #9B922D",
"a. c #AB8B2B",
"s. c #AA8726",
"d. c #B48423",
"f. c #B78829",
"g. c #AC9524",
"h. c #BA9627",
"j. c #A58433",
"k. c #A98838",
"l. c #B48533",
"z. c #B68A3A",
"x. c #A8943B",
"c. c #B99638",
"v. c #B3A130",
"b. c #C59B28",
"n. c #C68A38",
"m. c #C39C3D",
"M. c #C79737",
"N. c #D2983A",
"B. c #C68E2C",
"V. c #C6A026",
"C. c #CAA636",
"Z. c #CCB63B",
"A. c #CEB434",
"S. c #E1AD3E",
"D. c #C0B319",
"F. c #CEC42B",
"G. c #988746",
"H. c #9A8656",
"J. c #918B50",
"K. c #A88A46",
"L. c #B88B44",
"P. c #AA9548",
"I. c #B59444",
"U. c #B99847",
"Y. c #A68955",
"T. c #B89A55",
"R. c #AB8E55",
"E. c #BCA247",
"W. c #B9A254",
"Q. c #AFA04D",
"!. c #9A8868",
"~. c #8F8C71",
"^. c #AE9367",
"/. c #B2A876",
"(. c #C49C43",
"). c #CB9C44",
"_. c #C69647",
"`. c #D69A46",
"'. c #C99856",
"]. c #CB9552",
"[. c #C9A448",
"{. c #D4B745",
"}. c #C7A654",
"|. c #D6A753",
" X c #D2AC4B",
".X c #CCB368",
"XX c #E3AA51",
"oX c #BAC46C",
"OX c #D2C148",
"+X c #E7E754",
"@X c #FFFF79",
"#X c #F0EA6C",
"$X c #E3DB6C",
"%X c #787882",
"&X c #847E82",
"*X c #7C8083",
"=X c #848484",
"-X c #8C8C8C",
";X c #878987",
":X c #918D8C",
">X c #928F86",
",X c #8A9089",
"<X c #91928C",
"1X c #948D94",
"2X c #939393",
"3X c #9B9B9C",
"4X c #9B9C96",
"5X c #8B8A90",
"6X c #A8988B",
"7X c #A4A69E",
"8X c #ACAF92",
"9X c #A49FA8",
"0X c #9FA3A5",
"qX c #A4A4A4",
"wX c #AAA6A4",
"eX c #AAAAA5",
"rX c #ABABAB",
"tX c #A7A8A9",
"yX c #B1ACAC",
"uX c #B6B2A9",
"iX c #ACADB1",
"pX c #B3B3B3",
"aX c #BCBCBC",
"sX c #B6B7B7",
"dX c #AFB0B1",
"fX c #C1BCBA",
"gX c #C5B9A1",
"hX c #BDC3B5",
"jX c #FFFE94",
"kX c #EEE88A",
"lX c #C4C3BC",
"zX c #DDD9AC",
"xX c #DAE4A8",
"cX c #FEFFAC",
"vX c #DFE19E",
"bX c #BDBCC1",
"nX c #C7BEC1",
"mX c #BFC0C2",
"MX c #C3C3C3",
"NX c #CBCBCB",
"BX c #CAC7C5",
"VX c #D3D3D3",
"CX c #DBDBDB",
"ZX c #D3D1CA",
"AX c #E9E9DA",
"SX c #E4E4E4",
"DX c #EBEBE5",
"FX c #ECECEC",
"GX c #E9E5E4",
"HX c #F2EDEB",
"JX c #F5F4ED",
"KX c #F2EFF3",
"LX c #F3F2F3",
"PX c #FBFBF9",
"IX c #EEF0EF",
"UX c #DBDCE1",
/* pixels */
"3 0 2 3 3 4 3 3 3 2 3 0 4 7 3 4 3 2 3 9 3 3 0 3 3 3 3 3 7 4 7 3 3 0 3 6 3 4 6 3 4 0 4 6 3 7 3 6 4 9 2 2 0 3 3 4 7 2 3 4 9 2 3 4 ",
"rX3XdXrXtXqXtXqXdXtXD 3 S F V F N V B 8 B 2 3XNXCXVXVXNXVXNXNXVXNXNXNXZXZXVXVXBXdX=X3 8 9 3 8 7 N F D S G S CXSXCXCXSXCXVXSX4X@ ",
"MXCXVXSXCXCXNXMXqX-XF 8 F D 8 V Y MXGXLXMXD -XMXCXIXFXFXLXLXSXIXLXLXFXFXFXDXFXVX=XY 8 UXFXPXVXU M 7 D D S F CXFXmXtX;XtX=X0X! 2 ",
"VX0XaX4X3XrX-XU F 9 9 S M N @ =XLXFXmXBXrX=XI qXVXIXMXaXaXaXaXMXmXmXaXaXmXmXaX0XI 4 NXKXDXIXFXNXQ B 9 6 F G A rXeX;X3X4XrX4XW 4 ",
"UXMX2XtX3X5XS 8 8 Z B <X;X2X4 3XNXaXMXsXsX;XF -XNXHXaXyXrXqXrXwXwXrXtXrXiXiXqX=XU E IXBXpXmXVXpX=X3 2XrX9 8 G Y 2X=X3XyX;XW Y 6 ",
"CX2XtX3X%XS 9 0 S N rXNXHXGXNX6 D ;XMXiXdX1XY F 2XNXdXtXiXqXeX0XtXiXwXtXtXqX2XY 3 VXsX0XpXqXmXS 6 4XLXMXW G 8 V I 3X4XE iXrXU 3 ",
"VXsX-X~.N 6 M D B BXFXPXMXCXNX-X0 V -XqXwXtX-XS ;XMXMXrXqXtXrXiXqXtXqXrXiXrX2XI E PXrXpXqXwXV 3 3XSXUXqX2X=XD 0 D U -XsX3XqXE 3 ",
"CXyX;XI 8 8 V M NXPXMXNXrXrXrXUX;X0 F ;XiXqX-XE F -XaX5X-X<X=X-X-X<X;X-X<X;XI 3 VXaXqXqXrXF 3 3XIXZXqXrXdX2XQ F 0 V U ;XiXtXE 3 ",
"BXyXE M 8 V B qXIXNXMXrX9XqXrXrXVX=X6 D -X-X<XU D S Z F F S S S F S V S D F M 9 dXpXwXqXV 3 rXSXCX3XyXyXqXrX2XI S 8 M D E U U 6 ",
"MX-XY 9 B N D F W CXwX0XwXdXyX0XqXCX=X= D S F S M 9 3 3 3 3 3 0 3 3 3 2 = 3 8 B F =XaXQ 6 2XCXVXrXqXqXqX3XrXqX=XF S 7 N V 2 9 3 ",
"5XE 9 N N pXSX2XS =X0XVXqX3XqXqXyX=XMX2X2 S 3 M @                   X O         8 8 S 2 2XLXCXtXqXrXiXqXdXtXW N 2 9 M 3 M Z 7 9 ",
"F 7 9 N dXFXCXFX3X= D E rXpXrXrX-XW U V D O           X + X                           D S Y NXtXtXtX4XdXQ V 3 M 4X2XU 6 0 9 M G ",
"F M N ;XIXNXNXNXSXBX2 D ~ E ;X-X=X0 0 8 6     X                               O     2 0 8 0 4XNXtXrX;XY 8 4 tXDXCXVXsXU 9 3 8 V ",
"N D G iXZXBXqXdXVXLXaXU 0 D Y Y A 8 8 X X       X                   + X         O   2 2 = M 3 2XVXD N 4 U aXUXVX0X4XyXQ 9 9 0 S ",
"S F ~ IXVXqXiXqXrX0XDXIXW 0 2 S 9           @                                       O = 2 * 2 9 V 7 3 aXUXGXNXtXiXrXqXpXQ 0 3 B ",
"V D 1XFXNX7XqXiXtXtX0XCXPX%X6             @               O                       O   X   2 = 2   3 rXFXGXMX3XyXqXrXyX0XU g 2 8 ",
"G Z iXKXVX6XwXwX0XiXiX;X%XA b O O O X   .   O     X     O O + O     O   O +   O < O X X     O O 2 Z ;XLXFXaXrXrXrXqXtXeXY 7 3 8 ",
"S b bXVXZXuXwXwXiXtX0X,XP b O O O     %         O   X     o o % #       O O #   & <     . . = 2 = 8 F rXIXSXaXqXqXwXyXrXQ M 2 2 ",
"F G bX&X~.T >X;X2X*X,XW Z &   .     O +       + O O % O 1.c x x x 3.o       .   O O # . # .   = 3 * F U IXNXNXW W D Z F F B 2 3 ",
"F 9 0 0 5 5 F F A P U V 9   X   o ~.~.~.1.~..   O + . 3.R.k.p c.W.x . +     X   2X4.L 1.,.#   2 * 4 7 Q N E S F D 2 3 0 2 9 3 = ",
"b bXKXSXuX>XQ 4 3 7 3 8 4   o o #.p.p.p.i.G.v o . . # 5.T.x.C.h.{.%.. O O . o ,.,.G.T.K..X%.X   3 = 7 = b 4 0 3 U MXIXCXVX;X2 3 ",
"A iXSXCXNXZXKXKXUX3XA 9 g o . J.p.OXq.q.` u.Q.x . # # l ^.$.t.V.C.k.$ # # . 1.P.u.{ ) u ^ .XK .   X X = 7 2XNXSXSXZXMXsXsXW 3 * ",
"V rXKXbXyXrXtX9XrXmXR 5     /.z |.e.q.C.c.a i.^.H.# $ # $ Y.U.m.f.:.$ # # 1.G.P.$.a.(.e.' c.K.6Xo 2 9 D U BXIXMXNXtXqXrX3XS 4 2 ",
"B pXKXbXwXtXtXiXtXtXE 8 . . x .X(.( f.M.} [.$.#.^.3.# $ $ k U.|.l.L.<.x &.K.R.s c.) j. .} ..W.x . 0 9 G E aXSXMXtXqXrXtX2XS 0 = ",
"B dXDXMXyXwX0XiX9X;XY 9   . .Xp.d.X.[ _ l.c.[ { #.G.&.G.&.x.a.c._.[ I.E.a.s.-.$.x.^ $.[ >./ @.Y.. 2 8 I U aXIXaXqXrXrXrX-XF 3 2 ",
"B sXDXmX9XrXdXtXiX2XN 5 ; . c p.{.| n.l.) } c.` s.$.s T.c.c.} s. .U.c.` q.' L.[ _ { K.@.>.`.=.k . 0 9 B U MXKXMX2X-X=X=X=XD 0 - ",
"B dXVXdX-X%X1X5X>X;XH e . % d p.D.) h.I.p j.} ) m.{ E.} c.m._ } =._.a.' b.e. ...} ) } :.r '.=.k . 3 8 D W -XE V V F F F D N 3 = ",
"N 7X*XB D ~ P S F B S 7 X o d t.F.w.a $.T.j.z.[ u } c.-.[  .r.|.>.@.{ ' h.d.^ ^ z.u s._.=.n.:.O..           X O         X @ = 0 ",
"g t 5 e =   O     o + O + # s p.A.w.' a +./ L._ h.q.) ..-.>.| M.].[ u.a ) ^ z.] L.@.] -._.M.d.s . 4 t D Q mXDXGXGXFXIXFXZX=X9 * ",
"N hXGXGXHXDXFXFXAXZXU 0 + # d 0.F.` g.a.@.O./ l.f.} f.../ |._ n. .z.}.u *.+.] z.u k.l.n.;.;.' a . 2 8 A Y MXFXMXBXlXaXmXiXU 0 2 ",
"M pXGXBXlXBXfXaXlX,XZ B + + d g.D.w.g.} L.L.f.( ( [ _.] 7.@.$._ ;.[ I.i y <.k.k.c.z.N.;.l.;.I.c o 3 9 S E mXFXmXtXtXtXdX2XD 4 = ",
"N pXHXlXwXwXrXrX8X~.D b + # s 0.F.w.t.c.-.n.;.M.XX) / / _.$.$.;.N.( / +./.,.I.M.d.b.M.X.;.z.:.k . 0 9 G Q lXFXmXtXtXtXtX2XF 4 4 ",
"B aXGXaXrXqXrXwXwX;XS 9 O . i t.D.0.y.f.;.M.f.m.I.$.j.j.) a.[ M...f.[ K.!.H.:.XXX.b.d.m.-._.>.k # 2 7 S 4XsXIXaXtXqXyX0X:XG 3 = ",
"Z yXHXBXqX0XwX7XyX:XA 9 O   i g.F.w.h...d.N.e.m.I.*.K.c.| _ -.-.d.N.' #.1.!._.B.X.C.e.d.-.z.L.o.. 3 8 G 1XMXIXaXdXqX0XrX-XF 3 2 ",
"M pXDXuXrXiX0XuXwX:XS t O   s t.Z.0.r.;.;.N.' m.U.$.k.}.h.} :.^ -.M.' $.5.1.}.h...B.b.r.s.U.:.k . 6 8 D 5XNXSXMXqX-X2X;X-XS 9 * ",
"A dXFXpX;X;X<X;X1X6.F 8 O . s e.Z.` ).;.N.r.r.M.U.{ z.c...[ >.:.} _ c.L.6.5.:.M.e.C.h.h.d.-.:.%.. = 7 F Y Q U S V S G F V V 0 2 ",
"B 3X:XN A P D N S H S 3 O . s e.u.$._.;.;.`.;.n.[.` a.} h.-.d.c.s...M._.6.5.L.B.y.y.h.r.n.^ *.k . X   O   X X   X   @   @ O = 2 ",
"Z b 4 5 6       + .     X % i ) ) -.].>.n.`. .N.s.u.a.c.N.s.;.(.z.-.b.c.6.5.z.{.q.y.y.|.z.=.] k . 3 M Q 3XZXKXSXSXFXSXFXNX=X9 2 ",
"B sXHXAXKXIXHXHXGXNXQ 8 O   s {.e.y.M.;.n.N. .[.c.z.[ (._.l...z.k.[ ^ } 5.5.(.y.e.C.f.;.'.p _.z . 9 B U 5XMXSXBXBXbXMXMXNXU 4 = ",
"B pXJXfXsXMXMXaXnXeXV 9   . u {.g.' N.X.N.n.:.I.Q.x.*.I.z.[ ( } ^ @.b...1.1.(.b._ b.h.;.].@.).o.. 7 M E 3XMXFXaXqXiXwXwX0XF 2 2 ",
"n bXGXfXyX0XyXqXwX&XD 9     s {.g.} B.r.B.`.-.k.Q.x.x.I.} m.s.-.=.>.N.a.1.!.s.S.' M.f.a._.^ `./ . 0 F E 2XMXSXMXqXrXrXqX;XF 6 2 ",
"N pXJXBXqX0XrXqXyX:XG g O . i Z.t.a.b.N.;.B.d.}.p.x.i.}.I.a...). .>._ W.3.1.).r.X.N.} c.(.[ _./ . 8 S E 2XNXIXaXrXqXqXqX2XF 4 = ",
"n pXDXuXrXiXqXdXyX:XV 9   . s {.t.` V.| N.b.e.a.x.P.P.P.*.] K.j.l.f.c.%.~.1.).S.X.f.d.a.m.( XXO.# N B E 3XaXLXaXqXwXrXtX;XS 3 = ",
"Z dXDXuX;X;X5X-X>X;XF M   . a Z.t.e.C...r.b.e.x.P.&.G.i.K.:.L.u ..m.@.k 5.K -.N. .N.s.s.N.[ _.O.# B S E 3XaXLXMXrXrXrXqX;XF 3 2 ",
"B 4X>XB A P D N F H B 5 @ . a {.g.|  Xn.r.M._  Xi.G.R.R.E./ $.z.) $.R.H.6XJ.Y.].z.a.-.a.[.[ `.i # B D U -XMXSXMXqX-X=X-X=XF 3 2 ",
"N e 4 5 6 O       +       + a Z.e.a.n.l.S.B.a.j.R.,.H.i.j./ j.L.K./ z Y.c ZX%.R.$.}.[ f.l.l.m.+.. = 8 S E W U D S D D D ~ G 0 - ",
"B pXHXSXKXKXIXKXLXZXR 9 X . a Z.t.h.`.;.f.)...K.2.2.!.<.#.[ U.K.<.p K.P.J.X : 6X%.I.s.e.s.-.|.o.# X               X       * = 4 ",
"B dXLXlXsXMXmXaXfXtXS 9   . a OXt.| `. .`.l.] ,.gX6Xx *.:.) l.R.$ 3.i { s o o # ~.H.#.s.).[ z.o.. 9 F U 3XMXFXIXKXSXFXPXVX*X9 = ",
"B dXDXhXyX9XyX9XwX:XZ b + . ` Z.u.g.c.l._.o.# . X X G.P.U.].=.$ Y.P.l.l.'.2.. X X ~.c Q.c...].o.. 7 G U :XNXFXaXMXMXMXaXrXU 3 2 ",
"m iXDXuX&X1X1X:X~.>XP b . # a Z.t.p.E.#.*.$ # . o ~.o z U.x.'.@.j.(.].].'.<.2.. X X 6X&.U.-._.o.. 9 N Q 0XfXIXMX0XqXqXyXdXG 0 = ",
"A tX9.V H H n ~ S S A 7 ; . a OXg.p.J.~.    . # J.G./.. z E.M.A.V.h.O.7.]..XT.3.. . . 6X%.<..Xo.# 8 B U 2XmXSXBXyX2X;X;X=XD 3 = ",
"m 9 t 2 . +     X     O @ X d W.u.u.!.o O X o L T.T.,./.o 0.h.V.V.s.7.^.K.k.T.H.6.+ %   gXJ J.c   = 8 G U %XU S S B S F V S 2 2 ",
"Z pXAXJXLXIXKXSXSXVX%Xb O . z oX1.8X.   & O   !.<.T.U.$.*.i.M.C.b.(.*.$ 2.^.!.4.. +   X   uXJ.L o             X         @   2 2 ",
"Z pXDXsXaXBXsXlXhX0XZ b +   c H.uX. . . O -     ^.H..Xz.U.T.n.7.(.c.}.&.# ~.4.        X X X eXI   9 N E 2XaXLXSXSXFXFXLXNX=X9 = ",
"m bXSXMXdX7XrXdXtX,XP 6 O   ~.zX. . . -       X   !.i.m._.'.^.=.:.`.U.U.H.o o   o     X >   7 4   8 B E 2XMXIXaXBXmXsXMX3XW 2 2 ",
"Z dXIXmXqXeXwX7X7X,XP b O   o   . . + +   ;     X   H.U.'.7.2.: O.f.c.x.x   o   .     + - 4 4 0 7 8 M U 3XMXSXMX3XpXrXqX2XG 3 = ",
"Z sXSX7X-X-X<X;X,X,XF b O O   X         o   O   X X   4.,.R.# x n.N.Q.1.    + . # # + & 1 1 0 5 7 8 V E 3XaXIXfXqXrXiXqX;XD 3 2 ",
"m 0X~.S S V D V A V A 9 & O     O     X ; 4 ; .   X   X X o x oX[.-.2..   O + . : > 4 + < 1 0 5 7 9 G U 3XNXCXdX-X2X=X-X-XF 4 2 ",
"B 8 9 4 X @     X X @ X       X     + ; 5 j w : . % O X X 9.J.Q.Q.&.X @ O O + # j j > > 4 q = 2 2 2 8 B I W E S D B D F V V 3 - ",
"B NXLXIXSXSXSXIXDXMXE t & &     X X o > w y y w $ # o X X X L J.i.X X X O ; w w y y > > o           @           X         @ 3 2 ",
"g VXGXtXiXsXiX0XeXeXC 9     @ JXcXcXcXcXjXjX@X@X#X+Xu oX8XhX0X8XoXoXy y y +X@X@XjXcXjXjXjXcX8X  6 8 S E 3XBXLXLXSXFXLXSXVX;X4 2 ",
"G lXLXqX*X5X5X5X:X>XC 5 X   X PXxXvXvXkX$X#X#X#X#X#X$XvX8XpXsX0XxXvX$XkX#X+X+X+XkXkX$XkX$XkX~.X 0 t G U 0XNXSXaXqXrX=X-X2XI 7 2 ",
"g eX;XV A F H G N S D g   5 b :Xj h h f h f f j h h h J v C A A h h J f f v f v h g h J f h C 6 = = t G I W Q S ~ S D S G F 9 - ",
"g g g V M Z M B B C g C g 8 Z Y E R K L R K Y Q ! ! Q Y K K ! ! ! Y T T T R K L Y %X%XI E ! Y 9 7 * N N M N B B M B B B B M B N "
};
