/* XPM */
static char *_ddd7d8325c6493aea6ab5a1645c5160[] = {
/* columns rows colors chars-per-pixel */
"64 64 256 2 ",
"   c #010102",
".  c #0A0501",
"X  c #090A01",
"o  c #04030A",
"O  c #070907",
"+  c #150600",
"@  c #0E0D0F",
"#  c #3C1B00",
"$  c #2B0C00",
"%  c #2A2600",
"&  c #382800",
"*  c #3C3B01",
"=  c #373601",
"-  c #2B330A",
";  c #383838",
":  c #2F2F2D",
">  c #1E2D10",
",  c #5A0600",
"<  c #461A00",
"1  c #541300",
"2  c #5A1A00",
"3  c #460B00",
"4  c #640100",
"5  c #6B0201",
"6  c #680A01",
"7  c #740101",
"8  c #7C0100",
"9  c #740B01",
"0  c #7C0C00",
"q  c #76060A",
"w  c #641400",
"e  c #6A1700",
"r  c #731400",
"t  c #7B1400",
"y  c #741B00",
"u  c #7B1B00",
"i  c #741809",
"p  c #472800",
"a  c #562802",
"s  c #433400",
"d  c #433B00",
"f  c #4B3B00",
"g  c #4C3502",
"h  c #573602",
"j  c #553417",
"k  c #682701",
"l  c #792601",
"z  c #673603",
"x  c #783A04",
"c  c #763714",
"v  c #433F3A",
"b  c #3A4203",
"n  c #3E461D",
"m  c #3F443E",
"M  c #434300",
"N  c #4A4704",
"B  c #564901",
"V  c #4B5501",
"C  c #5B5401",
"Z  c #575703",
"A  c #5A5618",
"S  c #4A4B14",
"D  c #674905",
"F  c #764905",
"G  c #655702",
"H  c #795708",
"J  c #6B5617",
"K  c #795918",
"L  c #714816",
"P  c #5A6402",
"I  c #6C6C01",
"U  c #686504",
"Y  c #756C01",
"T  c #776705",
"R  c #6B7401",
"E  c #747301",
"W  c #787704",
"Q  c #696817",
"!  c #767015",
"~  c #4C4D33",
"^  c #765C25",
"/  c #685E27",
"(  c #686723",
")  c #7A6526",
"_  c #74702F",
"`  c #5E6529",
"'  c #373942",
"]  c #3D4647",
"[  c #4B4A48",
"{  c #54554A",
"}  c #585856",
"|  c #4E4F4F",
" . c #64635A",
".. c #767149",
"X. c #5E5D65",
"o. c #676768",
"O. c #797A79",
"+. c #6E6E74",
"@. c #5F5D60",
"#. c #453D48",
"$. c #830201",
"%. c #8C0100",
"&. c #840C01",
"*. c #8B0B01",
"=. c #8A040B",
"-. c #930201",
";. c #9B0201",
":. c #930B01",
">. c #9B0B01",
",. c #97050B",
"<. c #831400",
"1. c #8A1401",
"2. c #841A01",
"3. c #891B03",
"4. c #971601",
"5. c #8C0A14",
"6. c #A30201",
"7. c #AB0201",
"8. c #A30B02",
"9. c #A80609",
"0. c #B30302",
"q. c #BB0202",
"w. c #B60805",
"e. c #A61501",
"r. c #B51305",
"t. c #B00814",
"y. c #842302",
"u. c #952401",
"i. c #883904",
"p. c #95350B",
"a. c #AA300F",
"s. c #C30102",
"d. c #C80504",
"f. c #D40305",
"g. c #CA0C10",
"h. c #C30B23",
"j. c #964907",
"k. c #855B02",
"l. c #955C00",
"z. c #875419",
"x. c #8E4C11",
"c. c #AD4F0F",
"v. c #856503",
"b. c #966705",
"n. c #877904",
"m. c #977C06",
"M. c #976618",
"N. c #8E7517",
"B. c #AF6B0F",
"V. c #885824",
"C. c #8E5528",
"Z. c #977825",
"A. c #916D28",
"S. c #AF6D2F",
"D. c #B3582C",
"F. c #C77516",
"G. c #CF592A",
"H. c #CB722F",
"J. c #CE5C19",
"K. c #B67146",
"L. c #807D6E",
"P. c #CA6C42",
"I. c #7D8206",
"U. c #7B8329",
"Y. c #7F8575",
"T. c #888503",
"R. c #948903",
"E. c #989902",
"W. c #878315",
"Q. c #998915",
"!. c #A59703",
"~. c #AE9211",
"^. c #9BA204",
"/. c #A9A906",
"(. c #B7AD03",
"). c #B0AF11",
"_. c #938E2B",
"`. c #AC8F2C",
"'. c #B2AE32",
"]. c #91A431",
"[. c #C88C18",
"{. c #CCBA18",
"}. c #CC8D2B",
"|. c #C7BA3A",
" X c #C9B629",
".X c #E5B527",
"XX c #BCC323",
"oX c #C8C718",
"OX c #D7D618",
"+X c #D6CD10",
"@X c #E5D918",
"#X c #E2D015",
"$X c #E7E218",
"%X c #C7C425",
"&X c #D8D727",
"*X c #D1D034",
"=X c #E6D32C",
"-X c #DAE328",
";X c #98934B",
":X c #B38C4E",
">X c #909076",
",X c #B4AA62",
"<X c #CC8648",
"1X c #C6B849",
"2X c #E99E59",
"3X c #BEC747",
"4X c #CFCA4A",
"5X c #F0DD78",
"6X c #ECE47A",
"7X c #F8E47B",
"8X c #E8E36E",
"9X c #E9D858",
"0X c #7B7B85",
"qX c #847F84",
"wX c #7D8581",
"eX c #888988",
"rX c #93938D",
"tX c #979797",
"yX c #8C908F",
"uX c #A6A597",
"iX c #A19EA6",
"pX c #A7A7A6",
"aX c #ADAAB3",
"sX c #A09C9B",
"dX c #ECDA86",
"fX c #EBE486",
"gX c #F6E68A",
"hX c #D7D7B8",
"jX c #D2D2AE",
"kX c #E3D7B6",
"lX c #DBE4AF",
"zX c #F0E9B2",
"xX c #D7CF9D",
"cX c #CCCDC8",
"vX c #D6D7CB",
"bX c #DBDDD5",
"nX c #DCDDDA",
"mX c #D5D7D4",
"MX c #CFD0CE",
"NX c #E0DAD0",
"BX c #DCE1D9",
"VX c #DBE6C5",
"CX c #E8E5C8",
"ZX c #E5E6DB",
"AX c #F9F8CF",
"SX c #DEDCE4",
"DX c #EBECEB",
"FX c #E7E8E7",
"GX c #EEF1E8",
"HX c #F4F5EA",
"JX c #ECEBF3",
"KX c #FBFDF5",
"LX c #FCFDFD",
"PX c #F3F4F7",
"IX c #F0EEF3",
"UX c #DDE0E5",
/* pixels */
"zXf > - * d & d g g b = & g d = & f s g d = - b - b * * s s g s * = M = * * d = M & d d * = b b d h s = * = s g = * - - = - - AX",
"zX,XX X fXgXfX6X7X7X8X8XgXgXdXfX5X7XgX5X6X6XfX6X8XfX5X7X7X5X7X6X6XfX6X8X7X6X5XgX5XgXgXdX6XfX6X8X7X5X5XdXfXfX7X7XgXfXfXfXO X AXzX",
"dXj.,X+ . . ^ ^ K K K J / _ D K K K K V.^ ^ J A.K V.z.C.V.Q / ( ^ ^ K V.K H H z.) ^ J ) ^ K J V.K K A.J ^ ^ F z.J ^ + X @ ,Xz.2X",
"2Xt M.z._.J $ $ 3 6 1 2 j < k a g p p p p < k , r e , w 2 < < p 2 1 2 2 1 2 z 2 2 2 1 2 2 < z < a p # a < 2 k $ $ + J A.;Xz.i G.",
"$.a.F.v.~.T v.x.<.=.,.7 4 , , 2 K C M f C.t %.>.%.8 5 6 6 4 , 6 q 5 q 5 q 6 q 9 8 q 0 9 w 1 3 < 3 1 e 5 q 5 4 6 K Z.P ~.k.S.D.$.",
"<.c.[.~.~.n.b.S.1.*.9.$.5 q u x.T G d :Xu %.6.7.>.*.t 9 6 9 5 9 7 8 7 5 3.0 8 =.%.-.%.&.D.p.L V.C.1 7 $.=.5.$.0 M.R.R.!.~.H.a.:.",
"0 p.B.l.~.k.m.l.t 4.8 *.9 , z.D C f <Xt >.8.e.;.*.9 l k , w y t r e k k e u u <.:.*.:.0 9 <Xk F D V.e &.5.8 >.<.B.b.Y !.b.H.D.%.",
"5 t J.F.[.l.v.l.k 6 i 6 e C.J f h K.3.e.8.;.&.u D.F.}.}.m.}.}.}.[.[.}.}.F M.S.i.e t 9 5 r e K.z d D C.0 5 &.8 t x k.B.~.B.G.8 =.",
"7 &.&.G.H.c.F g j & j j V.F f & <Xr *.4.1.c.B.k.v.m.).).m.%X{.%X%XoXoXXX|.D Z.N.`.k.S.2 e 6 t K.& M D C., , c 1 h M.c.J.G.<.3.4 ",
"8 8 4.;.r.*.u c % % : % g g p A.e &.3.y J.9X~.W E.W W ^.E /.).).).(./.).U M N G ^.C Y b.k , t r A.% g / ..2 j < L x 3.8.>.&.4 , ",
"5 4.6.q.q.7.;.2.j % $ j F a K.6 0 e k h ~. X!.!.!.*XI.Z E !.).R.^.!.).B `.4X%XI Z R.I ~.9Xc.r t w K.< g g # # < c y.-.6.-.&.5 , ",
"q :.7.s.g.q.w.0 h d j p F 1 , 6 u x.Q.U ).E.OX#X(.*X3XW G n.W T.n.R.! G n.).).T.*XR.R.(.{.[.k k r e D.# S = % # k <.8.w.8.$.7 4 ",
"t 8 9.0.h.0.;.3.V.s z h :Xk k 2 z.`.R.T.oX@X@X=X!.R.n.n.B U Y I Y T T B _.P W *X9X!.=X=X!.n.v.Q.F e 3.e g b M s x.&.7.7.6.-.8 8 ",
"5 8 7.h.6.>.4.D.H s < 1 z < L J Q.E =X#X$X(.OX*XR.Y C & J A Z A C D Z = b ( V R R.E.OX#X&X=XW T.Z.x 2.p.:XC Z f M.p.-.0.t.8.%.8 ",
"5 8 6.6.*.y.M.N.f p K., 2 z B n.I.-X@X#X@X+X^.).! / CXNXFXCXjXCXjXvXhXcXvXVX` b Z W OX@X(.+X$X#XG Q.x k k k # h T M.1.8.6.;.5.7 ",
"q 8 ;.>.y M.T Z # K.1 w c h I P -XOXR./.OXI.R U AXZXIXSX| | @.~ [ m ] | ] | { ` U.I ~.E.@X$X#X@X{.Y N.F 2 2 K.1 C T S.3.;.>.$.5 ",
"q =.,.&.`.E Z h D.r 2 z j f Z XX-XOXoXE I.U.AXAXHXJXIXmX@.eXeXrXO.eXY.O.Y.yXeX>X>X,X;XY T *X/.R.oX{.Z N.h 1 r D.h Z T S.u.*.t , ",
"=.,.,.<.m.Z f <X2.2.h p h & 3XI.R *X4XZ ,X{ HXLXLXFXJXUX} Y.@               X   X   X . Q I Y XXoXoX|.M B p u u S.B Z Z.P.&.0 5 ",
"$.%.,.4.k.B H.y 8 2.F N N I Z M R E B . uX .LXLXLXJXDXBX| eX                O     X . . X C U 4X|.G I.3X= A.6 0 y.S.N H S.t &.8 ",
"%.-.9.%.c.H.3.&.<.x.M.f |.|.3X= * A X . uX@.LXPXLXDXPXBX| yX  O               o       . X . B G G C M V b Z.i.0 t w :XH j.<.$.%.",
"-.-.7.8.G.u.6.r.p.3 p T.T.%X|.Q / . . . pXX.LXLXLXGXFXbX} eX    o   X     o o o o o o . + . . J f & = 3XI & a , $.t k <Xc.4.$.%.",
"$.8.7.r.>.>.q.w.t p 1XQ.%XE E M o @ o o aXX.LXLXKXHXZXvX} eXo o     O.O.O.eXtXwXyXaXiXiXaXsXrX>X/ B 1XY '.1Xp 2 8 $.r u G.-.,.8 ",
",.;.s.d.0.0.d.>.i.K '.T.%XR M / o o o o iXX.JXLXHXGXGXZX} eX    o   O.: ' ; ] ' } #.+.| } | [ ~ n ( `.Y R.'.T c &.%.$.4.8.8.,.5.",
"-.;.d.f.q.q.7.a.S.T C oXXXE N >X.       pX} LXHXKXZXZXbX[ rXo       >X: cXSXUXUXJXJXPXLXLXIXDXGXVX` V '.Y C T F 8 ;.-.-.0.6.,.=.",
"-.6.d.f.d.d.4.c.h '.oXoXW U ~ >X  X     pX} KXKXKXZXGXBX| rX  o     O.: vXZXmXmXDXDXLXLXLXJXDXDXBXlXU.XXR %X|.a &.6.,.9.7.w.,.-.",
"-.6.f.f.d.7.c.M.f 4XE.XXU N { eX      X uX} LXKXPXHXDXBX} yX  o   o O.: vXbXBXUXDXDXLXLXLXDXDXGXZXhXP '.XXT.|.z $.;.9.t.q.q.6.;.",
",.;.f.f.s.e.M.Y M XX^.XXQ = [ yX  X     aX} PXLXLXJXUXUX| eX        O.: mXmXBXmXGXGXKXKXKXDXDXDXmXCX` ].3XI.'.F u.6.7.0.s.s.6.;.",
",.9.s.d.q.:.[.I M ^.).3XQ hX[ yX        aX@.LXLXLXFXPXDX[ eXX       O.: MXBXBXBXGXGXKXKXKXDXDXGXmXNX;XU.R V U k.c.e.0.q.d.d.6.;.",
",.9.0.0.d.1.v.-XU ).T.W.b jX} eXO o @ o iXX.PXLXLXUXDXMX} yX        0X: cXUXmXmXDXDXKXKXKXFXDXDXHXvXkX! V d M h j.e.0.s.d.s.7.;.",
"-.9.w.w.6.4.{.OX/.G G * N jX~ tX  o     aX} +.o.O.o.o.X.} eX    X   O.: m | X.} o.o.+.+.+.o.o.o.[ ~ zX;X_.W.I D i.4.r.d.d.s.7.;.",
";.-.8.9.6.e..X+X).R.N.Q V lX~ eX  o   X pXpXuXaXiXtXtXeXyXeX@       wXeX0XqXtXqXtXtXpXiXpXtXtXtXyX~ xX;XW.I.U G i.u.d.d.s.q.7.;.",
"-.;.%.;.t.8 #X#X(.!.W.T A jX{ rX    O       X       O   o               o o o o         O       eXj zX_.W.W.I G i.4.w.s.s.g.9.,.",
"=.$.%.%.-.$.=X#X(.!.n.n.S vX{ eX  o               o o         X     X       o   o       o   o   wX{ lX_.Q.n.I C i.1.0.s.q.w.,.,.",
"q 0 $.%.;.%..X$X(.!.n.! S jX{ yX                    o . O   X           o o       O     o o o   yX- zX;Xv.n.! G i.3.7.0.q.9.-.8 ",
"8 $.>.-.%.&..X%X(.^.T.T ` jX .eXo               O     o       . X         o           X   O o   Y.v lX;XW.Q.G C i.2.;.7.7.6.%.8 ",
"4 7 -.;.t.8 .X*X^.^.W I S jX| tXtXtXtXtXuXpXuXuXpXtXrXeXyXeXo       O.qXO.eXyXrXuXrXpXpXX O     tXv lXA.T I I U F u >.9.6.;.$.8 ",
"=.%.6.6.-.&.[.~.R R P B A CXm ; | [ [ | }  .}  .@.[ | [ #.yX  @ @   O.: ; v ; ; m {  .pX        eX#.lXQ P C M f z.y -.9.;.-.$.8 ",
"7 =.7.9.;.7 1 1X].V E N.% jXNXBXDXDXFXGXKXKXKXKXKXGXGXmX| eX        eX: cXSXNXBXGXGX .pX        tXv CXb I R M K C.u %.;.-.%.8 7 ",
":.-.6.;.=.5., F Z '.|. Xd xXBXBXDXDXDXGXKXLXKXKXKXZXFXZX| yX@   o o eX: vXbXbXbXFXHX .pX        qXv kX! '.U ,XC p.&.;.6.;.-.8 5 ",
"$.-.6.;.,.8 t 3 & C |.|.Y S jXBXDXJXDXJXLXLXKXKXLXZXHXBX| eXo o     O.: MXvXZXbXGXFXO.pX  O   o tXv xX! Y n.V & <.;.t.0.7.6.0 5 ",
"7 =.-.-.,.%.$.e h = D n.4Xd lXVXFXDXPXJXLXLXLXLXKXHXZXbX} eX    o   O.: MXNXbXnXGXDXO.iXo @ o o wX~ ( 1XY U % a :.0.q.q.q.;.=., ",
"9 $.*.%.-.-.%.7 V.s `.4X1XT b VXGXPXUXPXLXPXLXPXKXFXHXbX{ rX        Y.: cXBXbXBXDXPX+.aXo   o   yXn = W  X|.* z.;.s.q.q.s.0.7 5 ",
"4 9 &.$.:.%.,.$.c D ].^.1XT _ kXZXHXPXUXLXLXJXLXKXFXHXcX{ rX  @     O.: cXNXbXmXJXSX0XaXo @   X >Xb ! I Q.'.D l t.s.q.q.q.0.5.5 ",
"4 4 9 G.4.%.%.&.w p C |.n.C = ~  . .o.+.+.+.0Xo.+.o. .} [ eX        Y.: cXnXnXSXJXJX0XiX      X Y.S Z Q.|.F 2 u e.0.8.r.d.7.=.q ",
"4 5 0 c.H.<.0 q e 3 G 3XN.D A N >X>X>XrXaXiXaXaXiXpXrXyXtXeX@ o o   0X: MXBXnXSXJXJX+.aX.     X _ V V I.1XF w 3.8.e.u.G.0.w.-.8 ",
"5 0 6 c.j.`.w 6 5 x & Z P % % / ` O X X   o o o o             o o   wX: MXBXnXnXJXSXO.pX  . X n b > - Z G # 2.4.4.y.<Xj.r.d.9.-.",
"*.7 r S.H h :X2 5 r F N * M S & S b X   X   o o O           o o o   0X: cXBXnXSXJXIX+.uX  X b V = M M s M F u.r.3.}.D x.e.0.7.6.",
"%.*.3.H.Z.C p :Xr 6 a A.Q M C d Q ! Z     X                 o o     0X: MXnXbXnXIXSXL.uX. V _ I * Z f _ ) z.4.e.H.g G A.e.0.6.7.",
",.;.>.7 <XT Z f S.2 w F V.& 1XT.Y 9X4XC Q . X   o         O     o o 0X: nXNXNXZXZXHX..( R 4X4XI W 3X= Q c y.y.S.f C T P.4.8.9.,.",
",.%.8.>.6 Z.U G # K.e 1 h h U  X&XOX{.T W.N.,XuXpXsXtXeXrXrXeXeXeX+.0X: MXNXvXVXCXAXQ N.T.oXOX-X*XB N a y.9 S.# C Y F.&.r.8.$.,.",
"%.6.0.;.>.t S.H f # a z z a ! Z &XOXR.(.=XT T / ` m [ | ' ' #.| : : ' ' MXmXVXlXzXC v.=X+XR.OXOXZ T l l q K.p f k.H.;.r.0.0.%.$.",
"%.6.0.7.7.e.e A.h L D :Xl k D m.T.OX+X$X#X=X!._.U.S AXhXVXCXkXkXkXhXjXhXcXVX` Z N.R.=X@X+XOX+XR.n.x.y y.i 1 * B S.8.d.d.s.0.-.%.",
"-.6.6.0.q.6.u.x.< j g z y.0 u i.!.W &XoXOX(.OX-XI.I.'.! R _._._._.`.]._.Q U T G =X+X/.OXOX=XR.!.j.t e :Xj g b _ u.s.f.f.s.7.0.;.",
"6.6.0.q.q.7.u.l < & g h 1 P.u.y.b.~.n.!.$X+XOXOX/.T.T.I Z U T.n.n.n.T.T.C T v.T #X$XOX&X!.m.B.l.l u a L j = = g $.q.f.f.d.q.7.;.",
"9.6.g.q.g.8.3.x < % % S g # S.y.2.c.B.l.!.!.#X=X^.U N ) C T Q.T.I.I.I.R Z f A.W.*X&XE.E.T.N.j.i.k A.p J j % % h y.6.q.g.s.g.-.%.",
"-.;.q.r.*.y.i.i.p h a ^ A f # S.3.*.4.y.}..X~.!.~.Z U = B U U R ! Q R ! b Z d T n.R.|.).F x y.y M.& h h $ & & < l u.>.0.0.r.:.%.",
"*.%.e.J.}.k.z.z 6 <.4.<.V.D * p <Xr <.t B.B.}.l.~.W ! Q M V P V P P Z Z * Q Z T H [.b.B.a.u.u <X< B D V.j a p a z F j.J.J.u.>.-.",
"8 4.c.B.~.R.Y x u.t.q.7.2.z.J * h K.y 2.u 0 2.2.u j.N.K z a f f d d g h h ^ D L e u u.u.4.1.<Xa f D C.w e 1 w k H v.b.[.}.J.u.;.",
"2.c.[.l.~.T k.B.r.0.g.7.%.r C.F D h :Xy &.-.>.e.8.r.8.>.3.3.<.2.r 9 9 9 4 y 6 0 1.%.8.8.u.}.f C G V., 0 4 =.$.2.M.Q.H !.l.l.c.%.",
"$.j.F.[.~.b.m.c.9.g.g.g.;.8 r C.V.x x.x.4.8.7.7.s.q.s.q.6.,.9.-.$.$.8 8 8 8 8 $.-.$.6.6.<Xz B T ^ 1 0 7 5.=.;.-.c.m.m.!.~.}.j.1.",
"8 c.B.b.~.j.B.J.6.h.w.6.9.%.8 &.$.*.$.:.;.w.t.0.w.0.w.w.;.;.,.=.=.8 7 7 9 q 7 $.,.=.$.P.c.j.z.S.r 8 7 ,.8 %.t.6.c.B.v.[.l.F.c.8 ",
"8 0 B.F.}.l.c.1.t.9.7.%.8.%.=.$.-.;.6.8.6.6.t.t.w.w.6.;.6.;.%.,.=.8 5 5 4 5 5 7 7 =.8 0 &.0 3.2.8 $.:.8 $.-.7.w.4.j.B.}.B.H.5 7 ",
"5 9 &.G.G.G.:.-.,.,.;.8.%.>.9.,.=.-.6.;.r.7.9.t.6.6.8.;.8.;.-.=.q q 5 5 4 6 q 0 =.=.$.$.=.*.%.:.,.-.%.8 <.8 7.7.r.;.c.G.G.0 5 4 ",
"4 9 *.>.:.8 -.;.-.-.6.-.-.%.;.-.=.$.-.6.;.6.w.7.t.;.-.;.-.;.;.$.7 5 , , , 5 5 5 7 8 $.%.-.%.;.8.,.$.:.&.7 8 6.6.7.r.-.*.*.&.4 4 "
};
